<?xml version="1.0" standalone="no"?>
<!DOCTYPE svg PUBLIC "-//W3C//DTD SVG 20010904//EN"
 "http://www.w3.org/TR/2001/REC-SVG-20010904/DTD/svg10.dtd">
<svg version="1.0" xmlns="http://www.w3.org/2000/svg"
 width="512.000000pt" height="512.000000pt" viewBox="0 0 512.000000 512.000000"
 preserveAspectRatio="xMidYMid meet">
<metadata>
Created by potrace 1.16, written by Peter Selinger 2001-2019
</metadata>
<g transform="translate(0.000000,512.000000) scale(0.100000,-0.100000)"
fill="#0d4b40" stroke="none">
<path d="M2698 4583 c-7 -118 -37 -170 -180 -312 -97 -97 -123 -130 -152 -191
-20 -41 -41 -100 -47 -131 l-11 -57 -62 -7 c-304 -32 -532 -110 -642 -220 -73
-73 -80 -111 -65 -360 17 -298 51 -481 126 -692 19 -53 33 -98 32 -100 -2 -1
-48 -16 -103 -32 -217 -65 -350 -136 -460 -245 -82 -82 -111 -146 -100 -220
19 -123 123 -199 583 -423 362 -177 491 -208 853 -208 238 0 296 6 467 46 96
23 238 71 303 104 25 12 92 39 150 60 214 75 459 214 566 322 66 65 89 123 81
200 -14 134 -175 270 -414 348 -43 15 -84 28 -92 31 -7 2 25 23 70 46 100 49
230 171 273 255 102 202 57 419 -104 508 -51 28 -62 30 -150 29 -65 -1 -112
-7 -151 -21 l-55 -19 4 143 c5 166 1 183 -68 247 -77 72 -211 129 -386 165
-53 11 -98 22 -100 24 -2 2 22 30 54 63 32 32 66 77 77 99 21 43 33 163 19
188 -6 10 -9 -4 -10 -41 0 -79 -24 -123 -120 -219 -75 -77 -84 -83 -120 -82
-21 1 -50 4 -64 8 -24 7 -21 11 72 108 116 120 140 166 141 268 0 45 -6 83
-16 105 -15 33 -16 33 -9 5 4 -16 6 -56 6 -87 -2 -86 -36 -147 -142 -249 -49
-47 -97 -100 -108 -117 -16 -29 -23 -32 -66 -32 -26 0 -50 4 -53 10 -15 24 39
106 138 208 80 84 108 119 121 158 18 53 33 214 17 179 -5 -11 -10 -29 -10
-41 -1 -11 -8 -45 -17 -75 -14 -47 -29 -67 -125 -161 -110 -108 -150 -167
-165 -245 -6 -32 -8 -33 -55 -33 -45 0 -49 2 -49 23 0 39 38 139 74 192 18 28
66 86 105 130 41 46 87 111 108 153 32 65 37 82 41 172 3 55 2 100 0 100 -3 0
-8 -35 -10 -77z m-197 -740 c1 -17 2 -17 6 0 3 13 15 17 49 17 l45 0 -8 -37
c-4 -21 -8 -55 -7 -75 l0 -38 -97 0 -97 0 -11 50 c-6 28 -11 62 -11 75 0 24 3
25 65 25 55 0 65 -3 66 -17z m-197 -50 c4 -31 9 -67 12 -80 5 -20 2 -23 -24
-23 -16 0 -69 -7 -118 -15 -205 -36 -398 -110 -467 -179 -29 -29 -42 -36 -60
-30 -47 14 46 -65 124 -106 161 -84 379 -124 679 -124 362 0 628 55 794 166
47 30 102 93 72 82 -9 -3 -29 10 -52 36 -65 71 -245 144 -409 165 -82 11 -86
13 -79 43 7 30 51 112 61 112 18 0 190 -44 203 -52 11 -7 10 -8 -6 -3 -46 12
-160 35 -178 35 -46 0 3 -15 135 -41 165 -34 251 -71 321 -140 78 -78 76 -142
-9 -220 -126 -116 -442 -195 -833 -208 l-195 -6 110 -7 c348 -23 823 69 964
187 l31 27 0 -59 c0 -85 6 -90 77 -74 32 7 78 17 103 23 264 57 427 -228 282
-495 -64 -119 -187 -217 -352 -282 -106 -41 -128 -55 -87 -55 46 0 247 -69
342 -118 143 -73 222 -165 226 -263 1 -18 4 -15 14 16 12 36 14 37 14 12 1
-15 -6 -44 -14 -63 -16 -40 -116 -141 -161 -164 -16 -8 -48 -27 -72 -43 -153
-102 -459 -201 -784 -254 -154 -25 -669 -25 -827 0 -347 56 -705 181 -847 295
-194 157 -157 333 101 477 78 44 239 111 285 120 l35 6 45 -88 c25 -48 46 -90
48 -93 1 -3 -27 -20 -62 -37 -74 -37 -130 -83 -152 -126 -66 -128 160 -260
535 -314 139 -19 607 -27 751 -12 319 34 608 154 636 264 23 93 -65 188 -236
254 l-70 27 33 31 c61 57 108 86 215 132 125 53 193 94 87 52 -95 -38 -262
-84 -275 -76 -23 14 -8 35 33 45 232 59 325 101 416 190 83 80 116 152 116
255 0 104 -29 166 -99 209 -106 66 -300 32 -359 -63 -16 -26 -16 -25 -18 39
l-2 65 -13 -90 c-65 -420 -166 -728 -326 -993 -74 -122 -107 -155 -180 -175
-259 -74 -605 -50 -746 53 -41 30 -166 202 -244 337 -108 187 -184 402 -222
628 -14 84 -36 312 -36 377 0 28 1 28 17 13 18 -19 81 -48 128 -59 23 -6 16 2
-31 32 -99 64 -137 131 -111 194 42 99 253 204 518 258 119 24 129 25 130 3 0
-14 2 -13 9 5 5 12 18 22 28 22 16 0 20 -10 26 -57z m460 40 c-4 -10 -10 -44
-12 -75 l-4 -58 -36 0 c-67 0 -82 9 -82 46 0 19 7 50 14 69 15 34 16 35 72 35
50 0 55 -2 48 -17z m-394 -210 c0 -5 -48 -17 -108 -29 -123 -24 -273 -84 -302
-122 -23 -28 -26 -62 -7 -81 18 -21 -12 -3 -40 22 -29 25 -29 47 -2 81 43 55
134 88 319 116 141 22 140 22 140 13z m-161 -126 c-18 -12 -40 -34 -48 -49
-13 -23 -13 -28 -1 -44 8 -9 30 -23 48 -31 37 -15 286 -37 369 -31 82 5 63 -9
-24 -18 -193 -18 -409 17 -452 73 -26 32 -26 36 2 68 22 26 84 54 121 55 14 0
10 -6 -15 -23z m1501 -324 c14 -8 37 -31 50 -51 21 -30 25 -47 25 -111 0 -97
-34 -169 -116 -245 -52 -49 -188 -126 -220 -126 -8 0 20 17 61 37 94 47 208
156 245 234 49 105 24 209 -60 249 -50 24 -74 25 -123 5 -54 -23 -108 -80
-133 -141 -17 -44 -26 -54 -45 -54 -23 0 -24 4 -24 58 0 68 14 92 75 128 76
44 205 53 265 17z m2 -66 c38 -50 31 -139 -17 -223 -28 -49 -119 -134 -180
-170 -46 -26 -207 -95 -212 -90 -2 2 10 59 26 127 17 68 31 135 33 149 2 19 8
24 26 23 38 -5 59 14 76 64 21 63 49 108 81 129 58 38 135 34 167 -9z m-292
-477 c-8 -5 -22 -9 -30 -9 -10 0 -8 3 5 9 27 12 43 12 25 0z m-15 -425 c118
-119 15 -223 -318 -319 -46 -14 -102 -27 -123 -30 -29 -4 -24 -2 16 10 197 54
356 123 414 178 57 53 46 121 -31 186 -21 18 -28 27 -15 21 12 -7 38 -27 57
-46z m-415 -197 c-56 -47 -213 -99 -295 -97 -16 0 2 7 42 14 96 17 191 50 234
80 42 30 53 32 19 3z m-392 -105 c-32 -2 -84 -2 -115 0 -32 2 -6 3 57 3 63 0
89 -1 58 -3z m315 -60 c-7 -2 -19 -2 -25 0 -7 3 -2 5 12 5 14 0 19 -2 13 -5z
m-50 -10 c-7 -2 -19 -2 -25 0 -7 3 -2 5 12 5 14 0 19 -2 13 -5z m-50 -10 c-7
-2 -19 -2 -25 0 -7 3 -2 5 12 5 14 0 19 -2 13 -5z m-1113 -192 c307 -94 698
-149 990 -138 104 4 121 3 75 -4 -91 -14 -407 -14 -520 0 -161 20 -340 60
-482 106 -73 24 -140 49 -150 55 -16 10 -16 11 2 6 11 -3 49 -14 85 -25z
m1187 -127 c-3 -3 -12 -4 -19 -1 -8 3 -5 6 6 6 11 1 17 -2 13 -5z"/>
<path d="M2952 3206 c-214 -57 -310 -104 -407 -200 -114 -113 -165 -238 -165
-408 0 -148 50 -276 149 -378 47 -49 49 -50 14 -8 -88 104 -133 227 -133 360
0 166 50 291 162 402 97 97 191 143 398 196 85 22 157 40 159 40 8 0 -9 -287
-24 -408 -19 -156 -44 -259 -94 -400 -42 -118 -46 -145 -11 -64 94 213 142
469 152 812 3 89 2 95 -17 97 -11 1 -93 -17 -183 -41z"/>
<path d="M1509 2381 c-99 -41 -149 -74 -201 -129 -106 -113 -81 -242 67 -348
57 -40 193 -110 200 -102 2 2 -31 21 -73 43 -101 53 -194 143 -211 206 -20 72
-2 120 72 194 34 34 100 85 147 113 95 59 95 63 -1 23z"/>
<path d="M3556 2361 c175 -86 252 -180 225 -273 -20 -66 -92 -128 -222 -192
-191 -93 -461 -152 -817 -177 -310 -22 -669 18 -986 110 -102 30 -67 8 44 -27
519 -164 1253 -141 1732 53 393 160 405 379 29 524 -118 45 -120 38 -5 -18z"/>
<path d="M2380 4517 c0 -55 -27 -130 -70 -191 -72 -102 -93 -153 -97 -236 -3
-41 0 -93 5 -115 9 -40 9 -40 16 30 10 95 19 121 89 260 56 112 61 126 65 203
2 45 2 82 -2 82 -3 0 -6 -15 -6 -33z"/>
<path d="M4097 1944 c9 -22 16 -67 17 -104 1 -111 -55 -189 -207 -291 -188
-125 -467 -245 -757 -325 -497 -137 -968 -120 -1405 51 -210 81 -421 200 -528
295 -31 28 -57 47 -57 41 0 -23 107 -130 188 -188 70 -50 64 -50 -33 1 -214
114 -305 227 -275 344 6 25 18 59 26 76 l15 31 -31 -35 c-90 -103 -110 -252
-49 -371 110 -217 560 -431 1029 -490 122 -16 475 -16 610 0 315 36 593 113
867 241 280 132 524 316 598 453 50 90 44 252 -11 297 -11 10 -11 5 3 -26z"/>
</g>
</svg>