<?xml version="1.0" standalone="no"?>
<!DOCTYPE svg PUBLIC "-//W3C//DTD SVG 20010904//EN"
 "http://www.w3.org/TR/2001/REC-SVG-20010904/DTD/svg10.dtd">
<svg version="1.0" xmlns="http://www.w3.org/2000/svg"
 width="512.000000pt" height="512.000000pt" viewBox="0 0 512.000000 512.000000"
 preserveAspectRatio="xMidYMid meet">
<metadata>
Created by potrace 1.16, written by Peter Selinger 2001-2019
</metadata>
<g transform="translate(0.000000,512.000000) scale(0.100000,-0.100000)"
fill="#0d4b40" stroke="none">
<path d="M2267 4040 c-194 -24 -363 -72 -497 -141 -123 -63 -200 -131 -240
-212 -47 -95 -49 -159 -11 -357 34 -178 71 -419 71 -461 0 -23 -6 -28 -47 -40
-92 -25 -276 -99 -368 -148 -412 -217 -533 -516 -350 -870 82 -159 209 -286
435 -433 340 -222 721 -341 1140 -355 618 -21 1224 181 1600 531 257 240 374
469 340 664 -13 74 -67 186 -107 223 l-26 24 26 -40 c60 -96 71 -207 29 -291
-10 -22 -22 -56 -25 -78 -9 -55 -59 -157 -111 -225 -166 -216 -505 -395 -962
-509 -263 -66 -360 -77 -669 -76 -228 0 -292 3 -412 22 -445 69 -830 236
-1050 453 -90 89 -134 147 -171 225 -24 53 -27 70 -27 170 0 107 1 112 37 186
86 173 275 310 591 428 77 28 140 50 141 48 1 -2 15 -50 30 -108 15 -58 43
-145 61 -195 19 -49 33 -90 32 -90 -1 0 -35 -22 -74 -49 -120 -80 -209 -190
-228 -281 l-6 -30 15 32 c40 87 133 191 239 269 l59 44 37 -74 c21 -40 58
-102 83 -138 36 -50 45 -70 41 -91 -15 -76 73 -182 200 -242 132 -63 211 -79
397 -79 184 -1 263 15 388 76 115 57 192 149 176 212 -4 19 15 42 120 143 147
143 185 163 404 223 81 23 184 53 228 67 l82 26 65 -46 c126 -90 197 -200 207
-321 l6 -71 8 57 c19 132 -56 283 -187 379 l-38 28 53 27 c198 99 315 247 326
409 15 234 -137 427 -366 467 -123 21 -298 -22 -398 -98 -23 -17 -46 -29 -52
-25 -8 4 -11 42 -11 101 2 190 2 198 -24 254 -78 170 -303 302 -625 367 -84
17 -151 22 -312 25 -113 1 -236 -1 -273 -6z m468 -45 c145 -22 276 -60 379
-109 271 -129 375 -302 280 -463 l-28 -48 -10 33 c-23 82 -169 196 -323 252
-169 62 -252 74 -503 74 -178 1 -244 -3 -315 -17 -204 -41 -338 -92 -438 -166
-62 -45 -92 -82 -111 -137 l-12 -37 -22 35 c-31 50 -52 114 -52 158 0 206 294
382 725 433 84 11 340 5 430 -8z m130 -329 c244 -63 445 -216 432 -329 -2 -17
-8 -32 -15 -32 -6 0 -18 -9 -27 -20 -9 -11 -14 -15 -11 -8 6 12 -20 7 -68 -12
-15 -7 -14 -2 8 32 101 153 -44 294 -375 364 -138 29 -425 32 -569 6 -264 -49
-488 -165 -541 -282 -10 -22 -19 -34 -19 -27 0 29 42 92 91 136 91 82 266 152
474 191 60 11 136 14 300 11 198 -3 230 -6 320 -30z m-267 -86 c1 -9 -16 -24
-43 -39 -65 -34 -98 -77 -92 -115 3 -17 9 -40 13 -50 6 -16 -1 -13 -32 11 -68
54 -168 67 -292 38 -159 -38 -220 -118 -162 -212 11 -18 18 -33 16 -33 -15 0
-144 55 -157 66 -24 21 -9 78 31 119 77 80 229 129 397 130 l113 0 0 27 c0 38
-32 44 -145 30 -119 -15 -254 -55 -335 -98 -55 -30 -60 -31 -35 -10 47 40 129
76 234 102 190 48 482 68 489 34z m267 -10 c71 -19 45 -17 -75 5 -46 9 -55 13
-30 13 19 0 67 -8 105 -18z m-1358 -62 c-3 -8 -6 -5 -6 6 -1 11 2 17 5 13 3
-3 4 -12 1 -19z m1407 3 c24 -10 26 -14 15 -27 -18 -22 -53 -34 -129 -45 -92
-13 -164 -35 -191 -59 -22 -19 -21 -19 21 2 69 35 179 33 242 -5 45 -26 78
-61 78 -81 0 -5 -9 3 -20 17 -23 29 -89 53 -170 63 l-55 6 32 -20 c66 -43 48
-97 -47 -144 -170 -85 -520 -39 -520 68 0 13 14 34 32 49 30 25 36 27 121 23
76 -3 84 -1 60 9 -62 27 -209 8 -254 -33 -51 -46 7 -120 119 -154 69 -20 211
-40 294 -40 26 0 71 -5 100 -12 l53 -12 -80 -8 c-142 -14 -440 13 -503 46 -34
18 -72 84 -72 125 0 87 72 134 214 140 107 4 153 -8 201 -53 l35 -33 0 36 c0
108 106 165 295 157 55 -2 113 -9 129 -15z m-1312 -167 c94 -102 226 -175 428
-238 194 -60 368 -79 599 -65 389 23 698 152 827 344 19 27 34 43 34 35 0 -16
-22 -61 -83 -171 -35 -62 -38 -76 -56 -235 -45 -390 -116 -602 -267 -793 -71
-90 -194 -197 -276 -241 -158 -85 -399 -94 -562 -21 -52 23 -307 274 -364 357
-96 143 -147 327 -166 604 -4 47 -12 137 -18 200 l-12 115 -61 65 c-68 73
-100 121 -110 165 -4 20 1 13 18 -22 14 -29 45 -73 69 -99z m2449 -1 c149 -70
239 -206 239 -363 0 -103 -55 -227 -120 -269 l-25 -16 24 33 c31 44 61 143 60
195 l-1 42 -12 -55 c-19 -85 -40 -125 -97 -185 -103 -109 -238 -174 -538 -260
-233 -67 -231 -66 -288 -117 l-47 -43 52 96 c29 53 52 104 52 114 0 9 6 15 13
12 6 -2 26 3 42 13 17 10 98 37 180 59 218 61 295 88 361 126 47 28 53 30 29
9 -60 -50 -172 -97 -357 -149 -71 -20 -78 -41 -12 -31 74 10 260 76 325 115
147 89 209 174 217 296 6 91 -21 158 -86 216 -144 126 -388 60 -411 -112 l-6
-42 -77 -1 c-74 -1 -78 -3 -114 -36 l-36 -35 6 70 c6 61 42 234 51 243 2 2 17
-4 34 -14 l30 -18 41 38 c77 69 195 107 320 103 71 -2 97 -8 151 -34z m-821
-78 c0 -6 -117 -65 -127 -65 -4 1 21 16 57 35 72 38 70 37 70 30z m742 -120
c47 -32 80 -100 80 -164 -1 -118 -94 -205 -286 -270 l-89 -30 -46 24 c-25 12
-81 35 -124 50 -43 15 -80 31 -82 36 -9 14 16 108 39 141 29 44 76 59 144 47
66 -12 92 0 92 42 0 83 79 149 180 149 42 0 64 -6 92 -25z m-1005 9 c-3 -3
-12 -4 -19 -1 -8 3 -5 6 6 6 11 1 17 -2 13 -5z m-40 -10 c-3 -3 -12 -4 -19 -1
-8 3 -5 6 6 6 11 1 17 -2 13 -5z m-50 -10 c-3 -3 -12 -4 -19 -1 -8 3 -5 6 6 6
11 1 17 -2 13 -5z m579 -398 c22 -7 66 -26 99 -41 l60 -27 -83 -24 c-46 -13
-101 -33 -123 -44 -21 -11 -39 -17 -39 -14 0 9 43 164 45 164 2 0 20 -6 41
-14z m-1436 -780 c-1 -21 -1 -21 -15 -2 -21 27 -20 53 0 36 8 -7 15 -22 15
-34z m955 -3 c-12 -17 -20 -23 -23 -15 -4 14 28 56 36 47 3 -2 -3 -17 -13 -32z
m-2091 -162 c220 -260 735 -503 1251 -588 155 -25 590 -26 755 0 293 45 607
142 855 264 71 34 84 38 60 18 -47 -40 -258 -140 -390 -185 -698 -239 -1412
-199 -2060 115 -240 116 -421 258 -504 395 -36 61 -33 59 33 -19z"/>
<path d="M2712 3311 c-30 -41 -115 -71 -201 -71 -79 0 -163 23 -190 51 -10 11
-22 16 -25 11 -3 -5 2 -17 12 -25 34 -31 104 -48 199 -48 128 -1 204 26 224
79 14 35 6 36 -19 3z"/>
<path d="M3473 2260 c89 -99 123 -170 138 -285 7 -58 8 -57 5 20 -4 119 -56
216 -159 297 -40 31 -39 30 16 -32z"/>
<path d="M1690 2253 c-74 -83 -93 -193 -52 -286 60 -134 272 -261 522 -312 89
-18 120 -15 43 4 -141 36 -321 131 -418 223 -127 119 -156 236 -86 349 17 28
30 53 28 56 -3 2 -19 -13 -37 -34z"/>
<path d="M860 2007 c-1 -19 65 -137 97 -173 l34 -39 -33 49 c-18 28 -47 77
-65 110 -18 34 -32 57 -33 53z"/>
<path d="M3855 1894 c-210 -190 -662 -379 -1057 -441 -153 -24 -494 -24 -663
1 -404 58 -702 173 -1001 386 -67 48 -84 57 -54 30 61 -55 256 -187 360 -243
205 -110 463 -207 660 -248 135 -28 362 -30 530 -5 137 21 366 78 545 136 306
100 507 209 669 362 80 76 88 91 11 22z"/>
</g>
</svg>