<?xml version="1.0" standalone="no"?>
<!DOCTYPE svg PUBLIC "-//W3C//DTD SVG 20010904//EN"
 "http://www.w3.org/TR/2001/REC-SVG-20010904/DTD/svg10.dtd">
<svg version="1.0" xmlns="http://www.w3.org/2000/svg"
 width="512.000000pt" height="512.000000pt" viewBox="0 0 512.000000 512.000000"
 preserveAspectRatio="xMidYMid meet">
<metadata>
Created by potrace 1.16, written by Peter Selinger 2001-2019
</metadata>
<g transform="translate(0.000000,512.000000) scale(0.100000,-0.100000)"
fill="#0d4b40" stroke="none">
<path d="M3107 4723 c-3 -5 -37 -138 -77 -298 -39 -159 -95 -381 -122 -493
l-51 -203 -31 6 c-17 4 -62 22 -101 41 -58 29 -85 36 -158 41 -77 5 -93 10
-124 35 -50 39 -103 51 -198 45 -142 -10 -246 -64 -279 -146 -12 -31 -22 -41
-48 -46 -51 -11 -138 -59 -188 -103 -52 -46 -94 -116 -113 -191 -11 -43 -19
-55 -48 -69 -32 -16 -34 -21 -41 -79 -4 -34 -14 -76 -23 -93 -28 -54 -15 -76
61 -100 36 -11 74 -20 84 -20 20 0 21 -4 45 -230 66 -625 101 -924 207 -1765
28 -226 51 -426 50 -445 -1 -19 -2 -48 -3 -63 -4 -72 129 -138 359 -177 317
-55 762 9 878 125 26 26 32 73 13 103 -8 13 -3 79 25 272 59 420 104 775 141
1104 48 425 53 459 75 509 18 40 53 274 76 509 l7 68 41 11 c63 17 96 37 96
59 0 11 -9 48 -19 82 -11 35 -22 75 -26 90 -3 17 -17 34 -34 43 -23 11 -33 27
-45 69 -30 103 -124 191 -230 217 -30 7 -62 23 -79 40 -28 28 -109 59 -154 59
-13 0 -23 6 -23 12 0 11 32 130 202 761 16 59 33 119 39 133 11 30 -6 56 -53
80 -28 15 -124 19 -131 7z m-24 -243 c-27 -101 -49 -176 -51 -168 -5 27 84
365 94 355 2 -2 -17 -87 -43 -187z m89 -162 c-33 -117 -84 -303 -112 -413 -63
-247 -81 -308 -86 -302 -4 4 157 619 217 825 17 62 34 110 36 108 3 -2 -22
-100 -55 -218z m-175 -160 c-3 -8 -6 -5 -6 6 -1 11 2 17 5 13 3 -3 4 -12 1
-19z m-22 -103 c-10 -42 -19 -74 -22 -71 -3 2 3 39 13 80 10 42 19 74 22 72 2
-3 -4 -39 -13 -81z m-28 -107 c-3 -8 -6 -5 -6 6 -1 11 2 17 5 13 3 -3 4 -12 1
-19z m-592 -99 c22 -6 56 -24 76 -40 32 -25 49 -30 138 -38 102 -10 169 -34
163 -60 -1 -7 9 -11 25 -9 37 2 73 -10 73 -25 0 -7 -5 -29 -11 -49 -14 -52
-47 -52 -86 -1 -36 47 -82 93 -94 93 -6 0 7 -18 28 -39 81 -84 107 -115 89
-108 -10 4 -28 7 -41 7 -14 0 -45 23 -87 63 -35 36 -75 66 -90 69 -52 10 -170
-21 -267 -69 -99 -49 -189 -67 -227 -44 -17 9 -17 11 6 12 34 2 -44 18 -85 18
l-30 -1 28 -8 c15 -5 41 -20 59 -35 29 -25 38 -27 102 -23 60 3 88 11 175 52
91 43 112 49 170 49 43 1 77 -5 98 -16 32 -17 67 -57 58 -65 -3 -3 -49 -9
-104 -13 -81 -6 -110 -13 -160 -38 -66 -34 -98 -37 -185 -20 -73 15 -135 2
-248 -52 -89 -44 -132 -47 -169 -13 -18 16 -19 16 -19 -4 0 -29 47 -52 105
-52 35 0 66 11 133 46 l87 46 107 -6 c107 -6 108 -6 170 25 57 29 76 33 198
41 143 10 169 7 238 -19 63 -24 36 -33 -98 -33 -115 0 -176 -11 -255 -45 -30
-13 -58 -16 -110 -13 -93 6 -129 -6 -55 -17 99 -15 161 -10 235 18 61 23 85
27 190 27 75 0 140 6 175 15 30 9 109 20 175 25 145 11 265 31 265 44 0 9 -75
5 -214 -10 -57 -7 -58 -6 -47 13 9 17 7 23 -10 34 -17 12 -19 20 -13 57 l7 42
49 0 c61 0 111 -21 134 -55 16 -25 16 -26 -2 -41 -18 -15 -18 -15 1 -8 46 17
102 16 141 -4 75 -39 141 -126 146 -194 3 -31 1 -33 -47 -45 -27 -7 -109 -20
-181 -28 l-131 -15 -44 25 c-25 13 -69 31 -98 38 l-54 14 46 32 c63 43 118 61
188 61 66 0 98 -10 152 -47 44 -31 60 -24 27 12 -82 88 -217 86 -389 -6 l-75
-40 -175 6 c-167 6 -181 5 -275 -19 -54 -14 -129 -40 -168 -58 l-70 -32 -176
12 c-160 11 -255 22 -334 38 -25 5 -28 10 -28 47 0 92 89 211 199 265 51 24
67 27 171 28 107 0 120 2 172 29 32 16 56 31 54 33 -2 2 -29 -4 -59 -13 -61
-18 -188 -17 -194 1 -7 21 43 80 89 102 76 38 190 51 263 31z m650 -310 c-25
-10 -142 -9 -175 1 -15 4 19 7 85 7 63 0 102 -3 90 -8z m-174 -199 c89 -6 143
-16 185 -32 l59 -23 -120 -7 c-66 -5 -250 -7 -410 -6 l-289 3 69 23 c161 52
259 60 506 42z m-1176 -46 c129 -39 639 -69 1020 -60 327 8 507 21 685 48 163
25 202 27 207 11 6 -18 -31 -30 -160 -53 -567 -101 -1332 -105 -1707 -9 -122
32 -136 39 -127 63 8 20 19 20 82 0z m1925 -70 c0 -8 7 -29 16 -46 16 -30 16
-33 -5 -49 -35 -28 -191 -52 -356 -53 -167 -2 -206 -13 -278 -76 -35 -31 -40
-32 -75 -22 -20 6 -112 13 -204 17 -142 6 -182 4 -257 -11 l-89 -18 -61 32
c-54 28 -71 32 -140 32 -138 0 -556 64 -583 89 -4 4 0 30 10 59 14 45 20 52
37 47 111 -31 228 -57 315 -71 139 -21 679 -30 935 -15 235 13 652 73 705 101
18 10 30 4 30 -16z m-134 -390 c-14 -115 -28 -224 -31 -242 -9 -49 -56 -95
-142 -138 -125 -61 -138 -90 -35 -78 l47 5 -32 -28 c-18 -16 -51 -39 -73 -52
l-40 -22 0 31 c0 32 -46 90 -80 102 -11 4 -8 11 15 29 55 43 127 113 168 164
26 31 -4 7 -78 -63 l-120 -114 -105 -3 c-115 -2 -169 -17 -293 -80 -38 -19
-105 -44 -149 -56 -109 -27 -166 -58 -221 -119 -105 -117 -130 -248 -61 -321
15 -15 51 -34 87 -45 45 -14 77 -32 120 -71 48 -42 75 -58 141 -79 109 -35
191 -29 291 20 68 33 82 38 135 50 14 3 33 18 42 34 19 31 49 184 47 236 -1
20 -4 12 -10 -24 -32 -204 -45 -234 -106 -243 -21 -4 -66 -20 -99 -36 -85 -43
-154 -49 -246 -21 -96 29 -123 44 -185 100 -37 34 -67 51 -110 63 -84 24 -108
53 -107 125 0 67 26 123 87 189 54 58 105 87 197 108 41 10 105 33 143 52 155
77 261 102 353 83 84 -18 94 -31 112 -146 19 -127 18 -171 -8 -324 -13 -83
-31 -146 -50 -189 -17 -35 -30 -74 -30 -87 0 -34 -16 -30 -23 6 -8 35 -32 40
-68 11 -47 -36 -112 -62 -189 -76 -43 -8 -96 -23 -117 -33 -68 -35 -151 -55
-201 -48 -91 13 -192 76 -257 161 -10 12 -8 4 4 -21 42 -86 165 -163 275 -171
50 -4 74 0 131 22 78 30 143 48 226 65 31 6 83 26 114 45 32 19 59 35 60 35 2
0 6 -11 9 -25 4 -14 11 -25 16 -25 5 0 1 -19 -9 -42 -10 -24 -40 -98 -65 -165
-55 -142 -97 -197 -183 -240 -45 -22 -71 -27 -127 -28 -141 0 -216 43 -279
163 -20 38 -61 97 -92 131 -30 34 -62 76 -71 93 -26 50 148 -112 203 -189 25
-35 47 -63 49 -63 2 0 -11 24 -28 53 -18 28 -74 93 -125 143 -114 111 -135
153 -137 269 0 44 6 109 14 144 l14 63 -37 72 c-21 39 -42 95 -46 124 -10 63
-27 83 -108 126 -34 18 -71 49 -90 74 -31 41 -43 75 -87 242 -17 64 -65 387
-66 444 l0 29 23 -21 c25 -24 82 -35 108 -21 18 9 24 -22 34 -181 10 -142 17
-194 31 -229 20 -47 79 -118 114 -136 44 -23 109 -19 150 9 39 26 49 43 80
127 20 56 21 56 103 93 63 28 104 56 171 116 112 101 187 139 287 147 82 6 63
14 224 -101 60 -43 132 -59 161 -35 36 30 -8 124 -73 158 l-36 18 99 6 c55 4
125 13 157 21 l57 13 -5 -31 c-16 -88 -44 -301 -40 -305 8 -7 13 20 35 168 19
129 43 212 56 198 3 -2 -7 -98 -20 -213z m-1493 128 c18 -3 34 -6 37 -5 3 1
54 8 113 17 l108 16 49 -25 c57 -29 114 -32 205 -10 45 11 91 13 184 8 l123
-6 -54 -17 c-66 -20 -122 -58 -216 -143 -38 -36 -89 -73 -113 -83 -119 -52
-122 -54 -152 -129 -56 -143 -145 -166 -244 -63 -42 43 -60 89 -68 168 -3 36
-8 82 -11 103 l-4 38 22 -20 c27 -26 86 -28 133 -5 37 17 131 112 121 122 -4
3 -25 -13 -49 -35 -69 -67 -137 -90 -187 -63 -23 12 -38 67 -37 135 0 28 2 40
5 27 2 -16 13 -25 35 -30z m24 42 c-3 -3 -12 -4 -19 -1 -8 3 -5 6 6 6 11 1 17
-2 13 -5z m116 -11 c-13 -2 -33 -2 -45 0 -13 2 -3 4 22 4 25 0 35 -2 23 -4z
m60 0 c-7 -2 -19 -2 -25 0 -7 3 -2 5 12 5 14 0 19 -2 13 -5z m977 -51 c37 -18
80 -74 80 -103 0 -14 -7 -19 -29 -19 -43 0 -91 24 -157 77 l-59 48 30 6 c55
12 100 9 135 -9z m259 -468 c-23 -26 -87 -60 -95 -51 -2 2 14 12 36 22 21 10
47 26 56 36 10 11 19 19 22 19 3 0 -5 -12 -19 -26z m-112 -60 c-3 -3 -12 -4
-19 -1 -8 3 -5 6 6 6 11 1 17 -2 13 -5z m-1470 -26 c-3 -8 -6 -5 -6 6 -1 11 2
17 5 13 3 -3 4 -12 1 -19z m1426 15 c-7 -2 -19 -2 -25 0 -7 3 -2 5 12 5 14 0
19 -2 13 -5z m123 -12 c-6 -9 -44 -322 -71 -581 -17 -160 -85 -643 -91 -649
-2 -2 -4 7 -4 22 0 14 -5 29 -11 32 -6 4 -7 14 -4 24 12 29 34 156 65 369 16
114 33 221 36 238 5 25 2 32 -20 42 -17 8 -26 8 -26 1 0 -6 -4 -7 -10 -4 -5 3
-10 1 -10 -5 0 -6 -5 -8 -12 -4 -8 5 -9 2 -5 -9 7 -18 -13 -19 -25 -2 -5 6 -8
3 -8 -6 0 -9 -9 -24 -20 -34 -11 -10 -20 -13 -20 -7 0 7 4 12 10 12 5 0 7 6 4
14 -3 8 4 67 15 133 14 87 17 131 11 168 -16 89 -15 91 50 135 32 22 74 58 91
80 18 22 39 40 46 40 8 0 12 -4 9 -9z m-1471 -135 c33 -41 38 -54 46 -128 5
-46 19 -144 30 -218 11 -74 22 -157 24 -185 3 -27 7 -70 10 -95 12 -96 13
-130 5 -130 -10 0 -27 -54 -28 -87 0 -12 6 -27 14 -34 19 -16 18 -26 -6 -32
-20 -5 -26 -36 -21 -107 1 -23 0 -23 -10 -7 -6 11 -9 30 -6 45 3 14 1 33 -4
41 -11 21 -30 201 -23 213 4 6 2 20 -4 31 -6 12 -16 65 -22 117 -40 342 -70
602 -75 645 l-6 50 19 -37 c11 -20 36 -57 57 -82z m133 -74 c22 -14 25 -22 37
-97 4 -22 22 -68 41 -102 l35 -62 -16 -59 c-17 -67 -20 -217 -6 -276 5 -22 8
-44 5 -48 -3 -4 -1 -8 4 -8 5 0 15 -14 22 -31 8 -17 40 -63 72 -103 32 -39 68
-90 79 -113 18 -37 19 -47 8 -77 -7 -19 -17 -32 -22 -29 -6 4 -8 -3 -5 -15 4
-12 3 -22 -1 -22 -10 0 -6 -133 5 -152 7 -13 9 2 6 50 -2 38 3 86 11 112 13
45 13 44 13 -57 -1 -116 9 -139 79 -177 22 -11 42 -23 45 -26 7 -7 70 -6 70 0
0 3 -20 11 -45 18 -51 14 -104 57 -108 89 -2 12 -6 26 -10 29 -10 10 -9 45 4
104 l11 50 41 -35 c23 -20 64 -42 91 -50 63 -19 196 -19 241 -1 18 8 36 12 39
8 3 -3 6 1 6 8 0 7 3 11 6 7 14 -14 118 94 146 153 12 25 24 47 27 50 3 3 6
10 6 15 1 29 18 74 26 70 5 -4 6 0 4 8 -3 7 8 45 25 83 17 38 29 59 27 47 -3
-13 -2 -23 2 -23 4 0 8 -7 8 -15 0 -8 -4 -15 -9 -15 -4 0 -8 -12 -8 -26 0 -22
-2 -25 -15 -14 -25 21 -17 3 12 -26 31 -31 37 -52 21 -72 -8 -9 -8 -16 0 -24
7 -7 12 -19 11 -27 0 -11 -3 -10 -8 4 -7 17 -9 14 -15 -16 -11 -58 -60 -126
-122 -165 -30 -20 -53 -38 -50 -41 2 -3 11 0 18 6 7 7 29 20 48 30 19 10 50
37 68 60 18 24 32 36 32 27 0 -9 -4 -16 -10 -16 -5 0 -10 -4 -10 -10 0 -5 8
-7 18 -3 14 5 13 3 -3 -10 -17 -14 -18 -18 -5 -27 13 -9 12 -10 -5 -8 -22 3
-33 -28 -16 -45 7 -7 16 -6 29 6 10 9 21 15 24 12 3 -3 11 1 18 10 9 11 9 15
1 15 -7 0 -9 5 -6 10 4 6 10 8 14 5 13 -7 67 121 87 203 9 40 18 71 20 69 2
-2 -3 -37 -11 -79 -37 -197 -118 -313 -263 -381 -46 -21 -81 -31 -115 -31 -39
0 -44 -2 -25 -9 12 -5 38 -6 55 -3 18 2 35 0 38 -5 11 -16 25 -10 18 8 -6 16
-5 17 12 3 17 -14 18 -13 12 4 -6 14 -4 17 8 12 8 -3 15 -1 15 5 0 6 5 7 10 4
6 -3 10 -1 10 6 0 7 3 10 6 6 6 -6 24 7 98 73 28 25 44 36 36 25 -8 -11 -22
-25 -30 -32 -13 -10 -12 -14 4 -31 10 -12 15 -26 10 -33 -4 -8 -3 -10 4 -5 7
4 12 2 12 -3 0 -6 7 -11 16 -11 10 0 12 -4 7 -12 -4 -7 -8 -17 -8 -21 0 -4
-16 -18 -34 -30 -19 -12 -31 -15 -27 -8 6 9 5 12 -5 9 -8 -3 -13 -10 -12 -16
3 -15 -148 -61 -255 -77 -176 -27 -441 -14 -468 23 -8 11 -13 12 -18 4 -4 -7
-12 -12 -18 -12 -6 0 -1 9 12 20 l23 20 -25 0 c-14 0 -28 7 -32 15 -3 8 0 15
7 15 8 0 6 4 -3 10 -8 5 -10 10 -5 11 22 3 51 -3 65 -14 9 -7 6 -2 -6 9 -13
12 -20 25 -16 30 4 4 2 4 -5 0 -6 -3 -14 -2 -18 4 -3 5 -11 10 -16 10 -6 0 -7
-4 -4 -10 3 -5 -1 -10 -10 -10 -11 0 -15 -5 -11 -15 4 -12 2 -13 -15 -2 -16
10 -17 13 -4 15 23 5 18 22 -7 23 -17 1 -18 3 -6 6 14 3 15 7 5 18 -6 7 -16
10 -21 7 -5 -3 -7 5 -4 16 4 12 2 25 -3 28 -6 3 -9 13 -8 22 1 10 0 24 -4 32
-13 36 -25 103 -20 116 3 8 0 14 -7 14 -7 0 -10 8 -7 20 3 11 1 23 -5 26 -5 3
-8 18 -7 32 2 15 0 32 -4 39 -4 6 -7 22 -7 34 0 13 -9 89 -20 169 -13 94 -17
146 -10 148 16 6 12 32 -5 32 -11 0 -15 19 -18 83 -2 45 -3 8 -1 -83 2 -157
36 -439 63 -528 7 -25 7 -32 -2 -29 -17 5 -32 80 -57 294 -12 103 -39 322 -59
486 -36 292 -37 297 -16 291 11 -4 30 -14 43 -22z m1099 -437 c0 -8 -6 -16
-13 -19 -7 -3 -10 2 -7 15 6 22 20 26 20 4z m-17 -45 c0 -5 -2 -10 -4 -10 -3
0 -8 5 -11 10 -3 6 -1 10 4 10 6 0 11 -4 11 -10z m-30 -79 c0 -6 -4 -13 -10
-16 -5 -3 -10 1 -10 9 0 9 5 16 10 16 6 0 10 -4 10 -9z m-15 -41 c3 -5 1 -10
-4 -10 -6 0 -11 5 -11 10 0 6 2 10 4 10 3 0 8 -4 11 -10z m-1037 -125 c-3 -3
-9 2 -12 12 -6 14 -5 15 5 6 7 -7 10 -15 7 -18z m1179 3 c-3 -8 -6 -5 -6 6 -1
11 2 17 5 13 3 -3 4 -12 1 -19z m-1163 -148 c-5 -5 -16 -1 -24 8 -13 14 -12
15 3 9 10 -4 17 -2 18 6 0 8 2 8 6 -1 3 -8 1 -17 -3 -22z m16 -66 c0 -14 -4
-22 -10 -19 -5 3 -9 17 -8 30 3 31 18 21 18 -11z m-8 -36 c9 -7 18 -24 20 -37
4 -32 -36 -40 -52 -11 -9 17 -8 20 10 20 11 0 20 -5 20 -12 0 -6 2 -9 5 -6 10
9 -7 38 -18 31 -5 -3 -7 -1 -3 5 3 5 0 13 -6 15 -7 3 -8 6 -2 6 5 1 17 -5 26
-11z m-79 -28 c-3 -12 -8 -19 -11 -16 -5 6 5 36 12 36 2 0 2 -9 -1 -20z m1131
-5 c-4 -8 -11 -15 -16 -15 -6 0 -5 6 2 15 7 8 14 15 16 15 2 0 1 -7 -2 -15z
m-1110 -30 c3 -8 1 -15 -4 -15 -6 0 -10 7 -10 15 0 8 2 15 4 15 2 0 6 -7 10
-15z m1160 -20 c-4 -8 -10 -15 -15 -15 -4 0 -6 7 -3 15 4 8 10 15 15 15 4 0 6
-7 3 -15z m-1044 -20 c0 -2 -5 -7 -12 -11 -7 -5 -8 -3 -3 6 6 10 4 12 -8 7
-11 -4 -17 -1 -17 9 0 12 4 12 20 4 11 -6 20 -13 20 -15z m1087 3 c-3 -8 -6
-5 -6 6 -1 11 2 17 5 13 3 -3 4 -12 1 -19z m-1220 -20 c-3 -7 -5 -2 -5 12 0
14 2 19 5 13 2 -7 2 -19 0 -25z m181 -98 c10 -41 22 -82 26 -91 5 -12 1 -18
-14 -22 -12 -3 -19 -3 -16 0 3 4 1 12 -4 18 -6 7 -13 43 -17 79 -3 37 -10 69
-14 72 -5 3 -9 15 -9 27 0 43 28 -6 48 -83z m-58 45 c0 -5 -5 -3 -10 5 -5 8
-10 20 -10 25 0 6 5 3 10 -5 5 -8 10 -19 10 -25z m1087 -7 c-3 -7 -5 -2 -5 12
0 14 2 19 5 13 2 -7 2 -19 0 -25z m-1200 -30 c-3 -8 -6 -5 -6 6 -1 11 2 17 5
13 3 -3 4 -12 1 -19z m1173 -62 c0 -2 -8 -10 -17 -17 -16 -13 -17 -12 -4 4 13
16 21 21 21 13z m-1139 -23 c13 -16 12 -17 -3 -4 -17 13 -22 21 -14 21 2 0 10
-8 17 -17z m1139 -119 c-14 -88 -31 -112 -110 -151 -108 -54 -243 -76 -460
-77 -205 0 -309 15 -458 65 -86 29 -86 29 -94 -16 -5 -23 -25 77 -36 176 -8
65 -8 67 12 59 15 -5 22 -17 24 -41 6 -86 11 -98 56 -124 51 -30 108 -47 231
-71 134 -26 396 -24 535 5 184 38 240 80 227 170 -5 37 -3 39 37 58 22 12 42
20 44 18 1 -1 -2 -33 -8 -71z m-84 -17 c-4 -17 -16 -41 -28 -54 -67 -72 -375
-119 -612 -93 -64 7 -116 16 -116 20 0 4 -11 5 -25 2 -15 -2 -25 0 -25 7 0 7
-4 10 -10 6 -13 -8 -61 5 -54 16 3 5 -2 6 -10 3 -8 -3 -23 0 -33 6 -15 10 -15
11 -1 6 11 -3 16 1 16 12 -1 25 20 72 32 72 5 0 10 -5 10 -11 0 -6 9 -8 22 -4
17 6 20 4 15 -9 -6 -14 -3 -15 14 -6 15 8 24 8 33 1 8 -6 21 -9 30 -5 9 3 24
3 34 -1 9 -4 76 -10 147 -12 160 -6 334 15 460 55 50 16 94 27 99 24 4 -2 5
-18 2 -35z m-886 5 c0 -13 -12 -22 -22 -16 -10 6 -1 24 13 24 5 0 9 -4 9 -8z
m960 -242 c-13 -24 -117 -75 -195 -95 -162 -42 -404 -57 -575 -35 -155 20
-327 80 -354 122 -18 29 0 30 51 5 119 -61 285 -90 503 -90 215 0 395 33 520
96 50 26 65 25 50 -3z"/>
<path d="M2375 3780 c34 -30 55 -40 78 -39 l32 1 -28 8 c-15 5 -43 22 -63 39
-19 17 -42 31 -50 31 -8 0 5 -18 31 -40z"/>
<path d="M2287 3702 c-15 -16 -15 -18 1 -18 10 0 18 8 18 18 0 10 -1 18 -2 18
0 0 -8 -8 -17 -18z"/>
<path d="M2190 3640 c-19 -11 -46 -20 -60 -21 -23 -2 -23 -2 -3 -6 19 -4 103
30 103 42 0 7 -1 7 -40 -15z"/>
<path d="M1779 3533 l-34 -38 38 34 c34 33 42 41 34 41 -2 0 -19 -17 -38 -37z"/>
<path d="M3178 3153 c7 -3 16 -2 19 1 4 3 -2 6 -13 5 -11 0 -14 -3 -6 -6z"/>
<path d="M3098 3143 c6 -2 18 -2 25 0 6 3 1 5 -13 5 -14 0 -19 -2 -12 -5z"/>
<path d="M2920 3095 c-19 -7 -28 -14 -20 -14 8 0 29 6 45 14 39 17 21 18 -25
0z"/>
<path d="M2693 3073 c9 -2 23 -2 30 0 6 3 -1 5 -18 5 -16 0 -22 -2 -12 -5z"/>
<path d="M2640 3060 c-8 -5 -10 -10 -5 -10 6 0 17 5 25 10 8 5 11 10 5 10 -5
0 -17 -5 -25 -10z"/>
<path d="M3371 2634 c0 -11 3 -14 6 -6 3 7 2 16 -1 19 -3 4 -6 -2 -5 -13z"/>
<path d="M2933 2363 c15 -2 37 -2 50 0 12 2 0 4 -28 4 -27 0 -38 -2 -22 -4z"/>
<path d="M2868 2353 c7 -3 16 -2 19 1 4 3 -2 6 -13 5 -11 0 -14 -3 -6 -6z"/>
<path d="M3023 2349 c15 -9 9 -17 -47 -62 -35 -29 -72 -58 -82 -65 -11 -7 -5
-6 11 2 17 8 55 35 85 61 l55 45 12 -27 c7 -16 12 -21 13 -12 0 20 -37 69 -53
69 -7 0 -4 -5 6 -11z"/>
<path d="M2810 2340 c-18 -12 -2 -12 25 0 13 6 15 9 5 9 -8 0 -22 -4 -30 -9z"/>
<path d="M2730 2310 c-8 -5 -10 -10 -5 -10 6 0 17 5 25 10 8 5 11 10 5 10 -5
0 -17 -5 -25 -10z"/>
<path d="M3047 2158 c-11 -45 -27 -102 -38 -126 -24 -55 -228 -274 -276 -297
-73 -35 -195 -4 -294 74 -28 23 -55 41 -59 41 -5 0 -29 16 -54 35 -25 19 -43
28 -40 20 4 -8 31 -29 63 -47 31 -17 74 -46 97 -65 109 -88 248 -108 326 -45
56 45 219 224 238 263 22 41 62 194 58 216 -2 8 -11 -23 -21 -69z"/>
<path d="M2820 2190 c-8 -5 -10 -10 -5 -10 6 0 17 5 25 10 8 5 11 10 5 10 -5
0 -17 -5 -25 -10z"/>
<path d="M2338 2133 c-51 -54 -68 -93 -66 -155 l1 -53 6 60 c7 69 20 96 69
148 20 20 34 37 31 37 -3 0 -21 -17 -41 -37z"/>
<path d="M3083 2065 c0 -22 2 -30 4 -17 2 12 2 30 0 40 -3 9 -5 -1 -4 -23z"/>
<path d="M2205 1696 c3 -16 14 -39 23 -51 19 -25 101 -85 117 -85 6 0 -6 10
-25 21 -53 32 -81 60 -102 104 -16 32 -18 35 -13 11z"/>
<path d="M2403 1543 c9 -2 23 -2 30 0 6 3 -1 5 -18 5 -16 0 -22 -2 -12 -5z"/>
<path d="M2862 1380 c0 -19 2 -27 5 -17 2 9 2 25 0 35 -3 9 -5 1 -5 -18z"/>
<path d="M2831 1287 c-13 -21 -12 -21 5 -5 10 10 16 20 13 22 -3 3 -11 -5 -18
-17z"/>
<path d="M3273 2175 c0 -27 2 -38 4 -22 2 15 2 37 0 50 -2 12 -4 0 -4 -28z"/>
<path d="M3262 2090 c0 -14 2 -19 5 -12 2 6 2 18 0 25 -3 6 -5 1 -5 -13z"/>
<path d="M3251 2034 c0 -11 3 -14 6 -6 3 7 2 16 -1 19 -3 4 -6 -2 -5 -13z"/>
<path d="M3241 1998 c-1 -9 -11 -24 -23 -32 -12 -9 -18 -16 -12 -16 17 0 47
38 41 52 -4 9 -6 7 -6 -4z"/>
<path d="M3026 1074 c-5 -14 -4 -15 9 -4 17 14 19 20 6 20 -5 0 -12 -7 -15
-16z"/>
<path d="M2960 1029 c0 -5 5 -7 10 -4 6 3 10 8 10 11 0 2 -4 4 -10 4 -5 0 -10
-5 -10 -11z"/>
<path d="M2798 973 c6 -2 18 -2 25 0 6 3 1 5 -13 5 -14 0 -19 -2 -12 -5z"/>
<path d="M2240 955 c-7 -9 -8 -15 -2 -15 5 0 12 7 16 15 3 8 4 15 2 15 -2 0
-9 -7 -16 -15z"/>
</g>
</svg>