<?xml version="1.0" standalone="no"?>
<!DOCTYPE svg PUBLIC "-//W3C//DTD SVG 20010904//EN"
 "http://www.w3.org/TR/2001/REC-SVG-20010904/DTD/svg10.dtd">
<svg version="1.0" xmlns="http://www.w3.org/2000/svg"
 width="512.000000pt" height="512.000000pt" viewBox="0 0 512.000000 512.000000"
 preserveAspectRatio="xMidYMid meet">
<metadata>
Created by potrace 1.16, written by Peter Selinger 2001-2019
</metadata>
<g transform="translate(0.000000,512.000000) scale(0.100000,-0.100000)"
fill="#0d4b40" stroke="none">
<path d="M1843 4501 c-24 -11 -43 -26 -43 -34 0 -8 74 -166 165 -352 91 -186
164 -339 163 -340 -2 -1 -34 -13 -73 -25 -149 -48 -241 -116 -281 -206 -12
-29 -37 -62 -58 -77 -76 -58 -115 -166 -98 -269 10 -59 15 -67 68 -116 l57
-52 33 -273 c18 -149 40 -294 48 -322 14 -47 53 -346 141 -1080 20 -165 43
-319 51 -342 20 -54 98 -126 177 -163 231 -109 612 -104 839 11 66 33 142 98
164 140 19 38 40 176 64 439 12 124 34 353 50 510 16 157 33 323 36 370 5 54
16 104 30 137 19 42 28 101 50 322 l27 270 47 49 c42 44 49 57 60 118 9 52 9
79 1 111 -14 50 -65 120 -108 148 -17 11 -34 29 -37 41 -10 36 -64 101 -111
134 -49 34 -272 119 -366 140 -53 12 -57 15 -68 51 -14 47 -62 89 -102 89 -16
0 -52 -11 -79 -25 -32 -16 -66 -25 -97 -25 -62 0 -112 -14 -156 -44 -24 -16
-53 -25 -92 -27 l-57 -4 -173 355 c-164 337 -174 355 -201 358 -16 1 -48 -7
-71 -17z m361 -595 c116 -240 146 -309 121 -284 -3 3 -100 195 -216 428 -149
301 -207 425 -198 431 9 5 34 -39 84 -144 40 -84 134 -278 209 -431z m611 -31
c39 -38 35 -95 -10 -139 l-35 -36 48 -24 c58 -29 115 -90 131 -139 10 -28 9
-42 -2 -70 -37 -87 -241 -167 -429 -167 -91 0 -108 9 -108 62 0 60 53 107 159
143 99 33 126 60 117 120 -3 22 -8 58 -12 80 -5 38 -5 39 11 20 9 -11 20 -19
25 -18 5 2 25 -16 44 -39 45 -53 49 -101 10 -147 -20 -24 -47 -38 -127 -62
-56 -17 -112 -38 -124 -45 -44 -27 -23 -31 45 -8 37 13 94 30 126 39 66 18
120 63 132 108 13 56 -4 93 -66 148 -33 29 -58 55 -55 58 4 3 10 -1 15 -9 7
-10 10 -11 10 -2 0 6 10 12 21 12 18 0 19 2 9 15 -21 26 -67 18 -107 -18 -58
-51 -101 -73 -186 -96 -42 -12 -81 -21 -85 -21 -7 0 -42 63 -42 75 0 3 10 5
23 5 28 0 38 7 66 48 32 45 91 73 175 81 46 4 84 14 106 28 48 29 85 29 115
-2z m-435 -110 c0 -9 -12 -20 -27 -26 -22 -8 -30 -7 -40 7 -10 14 -10 19 0 26
22 14 67 9 67 -7z m635 -32 c39 -13 102 -36 140 -49 94 -33 146 -65 189 -116
41 -47 56 -91 56 -160 l0 -48 -50 52 c-30 31 -54 67 -60 89 -12 43 -68 98
-137 132 -55 28 -252 97 -276 97 -19 0 -31 16 -22 31 9 14 73 3 160 -28z
m-855 -12 c17 -32 13 -37 -51 -56 -123 -37 -194 -111 -205 -211 -4 -37 -1 -58
14 -86 11 -21 19 -38 17 -38 -19 0 -78 36 -98 60 -95 113 -4 246 223 326 79
29 87 29 100 5z m509 -92 c1 -57 -11 -69 -100 -98 -132 -43 -203 -109 -197
-183 2 -21 2 -38 0 -38 -33 0 -97 28 -117 52 -44 52 -23 132 51 198 45 39 78
53 169 75 38 8 83 25 102 36 l33 21 0 -22 c0 -33 -43 -67 -106 -86 -77 -22
-131 -49 -144 -73 -17 -32 -12 -33 30 -2 22 15 70 36 107 45 105 27 129 46
144 114 11 49 13 53 20 32 4 -14 7 -46 8 -71z m287 60 c50 -15 71 -26 70 -36
-1 -11 20 -21 68 -35 103 -28 176 -89 176 -146 0 -19 -35 -72 -42 -62 -1 3
-12 23 -23 45 -25 50 -95 90 -180 103 -33 5 -61 15 -63 22 -9 25 -67 82 -104
101 -21 11 -36 24 -32 30 7 12 23 9 130 -22z m-756 -60 c12 -27 11 -33 -3 -40
-40 -23 -77 -62 -87 -94 -18 -56 9 -100 94 -152 79 -48 132 -62 271 -70 143
-8 250 13 371 72 103 50 134 83 134 143 l0 33 43 -23 c70 -38 91 -110 48 -166
-14 -19 -34 -25 -119 -37 -90 -13 -114 -21 -195 -64 -113 -61 -180 -80 -322
-88 -62 -4 -97 -9 -81 -13 17 -3 -64 -5 -180 -4 -170 0 -220 3 -269 18 -76 23
-149 69 -181 115 -24 35 -24 35 -24 9 0 -52 69 -111 176 -149 53 -19 89 -22
354 -27 510 -11 709 -1 918 43 122 25 233 76 253 115 4 8 13 54 20 103 7 48
16 87 20 87 12 0 61 -63 76 -97 24 -60 17 -92 -31 -138 -55 -53 -159 -97 -335
-141 -195 -50 -344 -67 -571 -67 -202 0 -268 6 -505 50 -231 42 -348 88 -404
159 -19 24 -22 37 -17 78 6 55 43 125 83 155 l26 21 17 -37 c21 -45 64 -87
104 -103 15 -5 73 -21 127 -35 56 -14 127 -40 162 -59 90 -50 115 -52 269 -21
125 26 186 44 148 45 -8 0 -77 -11 -153 -24 -154 -27 -176 -25 -256 24 -25 16
-80 38 -121 49 -82 23 -103 40 -121 102 -27 88 47 193 166 236 79 28 80 28 95
-8z m33 -80 c3 -11 -3 -35 -15 -55 -15 -25 -19 -47 -16 -85 l3 -50 -37 40
c-50 53 -50 82 1 132 44 44 56 48 64 18z m863 -35 c49 -17 91 -59 103 -102 10
-34 7 -39 -46 -66 -44 -22 -56 -21 -43 3 15 29 12 79 -7 111 -9 16 -37 40 -62
54 -40 23 -42 26 -16 21 17 -4 48 -13 71 -21z m244 -130 c41 -48 54 -82 41
-111 -20 -44 -171 -102 -335 -128 -126 -21 -442 -40 -491 -30 l-40 8 71 12
c50 9 102 29 180 69 99 52 118 58 217 71 127 17 207 49 263 106 21 21 43 39
50 39 7 0 26 -16 44 -36z m161 -233 c-84 -156 -639 -286 -1078 -251 -354 27
-595 97 -709 206 -43 40 -45 43 -14 24 99 -61 179 -85 413 -125 275 -46 486
-53 772 -24 204 21 471 94 567 155 62 39 61 39 49 15z m-101 -223 c-13 -113
-20 -121 -144 -182 -126 -63 -368 -119 -496 -114 -40 1 -41 2 -10 5 19 3 39 8
43 12 4 4 -59 6 -140 3 -327 -10 -617 46 -776 152 -62 41 -63 43 -72 135 -7
60 -6 64 11 56 190 -84 457 -127 779 -126 314 1 603 53 771 139 21 11 41 19
42 17 2 -2 -1 -45 -8 -97z m-1445 -193 c140 -67 350 -104 603 -107 81 -1 129
-3 107 -5 -22 -3 -44 -8 -49 -13 -6 -6 24 -8 75 -4 295 18 512 71 638 156 24
16 46 27 48 24 10 -9 -17 -230 -34 -286 -14 -47 -31 -69 -115 -154 -133 -135
-152 -175 -155 -321 -1 -86 -6 -123 -23 -167 -60 -161 -200 -292 -378 -354
-61 -21 -116 -31 -270 -50 -60 -7 -107 -50 -123 -114 -7 -28 -19 -50 -26 -50
-10 0 -13 34 -14 153 l-2 152 -10 -80 c-6 -44 -11 -119 -12 -168 0 -48 -3 -87
-7 -87 -5 0 -8 24 -8 53 -1 56 -24 130 -89 275 -58 130 -78 210 -106 427 -36
276 -38 282 -94 374 -56 92 -56 94 -71 241 -6 58 -13 123 -16 144 l-6 39 33
-22 c19 -12 66 -38 104 -56z m1225 -620 c-10 -83 -25 -217 -34 -298 -19 -167
-39 -239 -97 -347 -38 -72 -39 -73 -35 -35 3 22 8 103 12 179 6 128 9 145 38
205 27 59 31 79 37 191 3 69 11 136 17 150 12 29 72 113 77 108 2 -2 -5 -71
-15 -153z m-16 -1061 c-23 -126 -283 -234 -564 -234 -253 0 -478 86 -534 204
-30 64 -21 69 45 26 270 -174 740 -166 1009 18 24 17 46 29 48 27 2 -1 0 -20
-4 -41z"/>
<path d="M1997 2473 c-12 -11 -8 -48 13 -110 12 -33 27 -93 35 -134 13 -70 14
-71 9 -16 -3 32 -16 96 -29 142 -27 97 -20 117 31 86 46 -28 84 -110 105 -225
9 -55 18 -87 18 -69 3 102 -55 273 -106 313 -25 20 -63 26 -76 13z"/>
<path d="M2930 2370 c-81 -83 -196 -143 -322 -167 -115 -22 -136 -31 -69 -32
155 -2 397 121 464 238 30 52 -2 35 -73 -39z"/>
<path d="M2260 2245 c0 -3 6 -14 12 -25 18 -28 -2 -46 -32 -30 -28 15 -41 3
-16 -16 47 -34 100 2 77 52 -9 20 -41 35 -41 19z"/>
<path d="M2062 2110 c0 -19 2 -27 5 -17 2 9 2 25 0 35 -3 9 -5 1 -5 -18z"/>
<path d="M2183 2070 c0 -25 2 -35 4 -22 2 12 2 32 0 45 -2 12 -4 2 -4 -23z"/>
<path d="M2072 2030 c0 -19 2 -27 5 -17 2 9 2 25 0 35 -3 9 -5 1 -5 -18z"/>
<path d="M2193 1980 c0 -25 2 -35 4 -22 2 12 2 32 0 45 -2 12 -4 2 -4 -23z"/>
<path d="M2083 1945 c0 -22 2 -30 4 -17 2 12 2 30 0 40 -3 9 -5 -1 -4 -23z"/>
<path d="M2203 1880 c0 -30 2 -43 4 -27 2 15 2 39 0 55 -2 15 -4 2 -4 -28z"/>
<path d="M2092 1870 c0 -14 2 -19 5 -12 2 6 2 18 0 25 -3 6 -5 1 -5 -13z"/>
<path d="M2101 1819 c0 -13 4 -33 9 -44 7 -14 8 -8 3 20 -7 46 -13 59 -12 24z"/>
<path d="M2213 1775 c0 -27 2 -38 4 -22 2 15 2 37 0 50 -2 12 -4 0 -4 -28z"/>
<path d="M2122 1740 c0 -8 8 -37 18 -65 10 -27 18 -43 18 -35 0 8 -8 38 -18
65 -10 28 -18 43 -18 35z"/>
<path d="M2223 1670 c0 -25 2 -35 4 -22 2 12 2 32 0 45 -2 12 -4 2 -4 -23z"/>
<path d="M2182 1510 c0 -14 2 -19 5 -12 2 6 2 18 0 25 -3 6 -5 1 -5 -13z"/>
<path d="M1496 1099 c-41 -11 -66 -38 -66 -69 0 -34 14 -46 61 -55 27 -5 50
-1 83 14 39 17 46 24 46 49 0 50 -60 80 -124 61z"/>
<path d="M3517 1072 c-35 -38 -15 -86 42 -103 107 -32 184 49 97 102 -41 25
-117 26 -139 1z m144 -43 c14 -27 -3 -23 -24 6 -15 20 -15 24 -2 19 9 -4 20
-15 26 -25z"/>
<path d="M3383 914 c-12 -31 46 -55 91 -38 9 3 16 14 16 25 0 14 -7 18 -27 17
-16 -1 -38 1 -51 6 -16 5 -24 3 -29 -10z"/>
<path d="M3293 820 c-25 -15 -33 -27 -33 -49 0 -40 24 -56 86 -56 42 0 58 5
78 24 33 31 33 54 0 80 -34 27 -89 27 -131 1z m127 -41 c0 -5 -4 -9 -10 -9 -5
0 -10 7 -10 16 0 8 5 12 10 9 6 -3 10 -10 10 -16z"/>
<path d="M3464 726 c-48 -48 -43 -91 14 -119 95 -48 202 -14 202 63 -1 54 -52
90 -130 90 -46 0 -56 -4 -86 -34z m165 -17 c12 -11 21 -30 20 -42 l0 -22 -11
22 c-10 22 -37 35 -93 48 -25 6 -27 8 -11 14 28 11 72 1 95 -20z"/>
<path d="M3175 679 c-29 -17 -45 -40 -45 -65 0 -20 -4 -22 -40 -17 -78 11
-133 -33 -110 -87 14 -34 48 -50 106 -50 35 0 51 6 70 26 15 14 24 33 22 42
-4 15 2 17 47 14 44 -3 56 0 83 23 39 32 41 63 7 95 -28 26 -108 37 -140 19z
m62 -25 c-3 -3 -12 -4 -19 -1 -8 3 -5 6 6 6 11 1 17 -2 13 -5z m-107 -144
c-20 -13 -63 -13 -55 0 3 6 21 10 38 10 24 0 28 -3 17 -10z"/>
</g>
</svg>